<svg id="svg" version="1.1" xmlns="http://www.w3.org/2000/svg" xmlns:xlink="http://www.w3.org/1999/xlink" width="400" height="400" viewBox="0, 0, 400,400"><g id="svgg"><path id="path0" d="M139.114 79.836 C 134.770 81.172,134.405 82.743,134.402 100.123 C 134.399 122.348,133.256 121.206,155.477 121.190 C 177.765 121.175,176.200 122.760,176.200 100.200 C 176.200 77.609,177.802 79.208,155.200 79.237 C 143.969 79.252,140.606 79.377,139.114 79.836 M210.845 84.232 C 193.009 89.029,190.488 113.675,207.000 121.820 C 220.562 128.509,236.138 118.877,236.138 103.800 C 236.138 90.567,223.538 80.819,210.845 84.232 M138.600 149.949 C 134.499 151.860,134.400 152.346,134.400 170.575 C 134.400 188.422,134.417 188.508,138.200 190.400 L 140.200 191.400 155.600 191.400 L 171.000 191.400 172.800 190.400 C 174.129 189.662,174.862 188.877,175.600 187.400 L 176.600 185.400 176.600 170.189 L 176.600 154.979 175.595 153.026 C 173.723 149.389,173.867 149.416,155.800 149.302 C 141.298 149.210,140.087 149.256,138.600 149.949 M202.184 156.898 C 202.077 157.177,202.036 163.345,202.094 170.603 L 202.200 183.800 216.000 183.800 L 229.800 183.800 229.800 170.200 L 229.800 156.600 216.089 156.495 C 205.293 156.412,202.337 156.498,202.184 156.898 M150.364 224.336 C 135.376 229.285,136.108 250.971,151.400 255.056 C 160.542 257.498,169.692 251.427,171.276 241.868 C 173.178 230.392,161.548 220.642,150.364 224.336 " stroke="none" fill="#f4c6af" fill-rule="evenodd"></path><path id="path1" d="M115.378 46.027 C 113.731 46.506,112.409 47.996,111.976 49.861 C 111.562 51.644,111.517 307.251,111.930 310.000 L 112.200 311.800 189.200 311.800 C 273.971 311.800,268.397 311.958,270.721 309.484 C 273.202 306.843,272.989 318.805,273.104 175.753 L 273.207 46.106 271.704 45.857 C 269.319 45.463,116.748 45.629,115.378 46.027 M169.660 75.978 C 179.182 76.981,179.800 78.456,179.800 100.200 C 179.800 125.289,180.301 124.784,155.400 124.784 C 131.143 124.784,131.223 124.855,130.912 103.000 C 130.522 75.540,130.327 75.763,154.800 75.661 C 161.070 75.635,167.757 75.778,169.660 75.978 M223.773 81.134 C 248.420 90.033,243.285 126.219,217.195 127.490 C 194.121 128.614,183.143 100.108,200.941 85.285 C 206.890 80.330,216.639 78.558,223.773 81.134 M172.954 146.566 C 179.399 148.506,180.193 151.530,179.893 172.992 C 179.677 188.392,179.609 188.802,176.807 191.620 C 173.901 194.543,173.486 194.600,155.000 194.600 C 130.077 194.600,130.523 195.099,130.899 167.605 C 131.202 145.464,130.517 146.071,155.236 146.028 C 167.804 146.006,171.461 146.117,172.954 146.566 M233.227 147.443 C 239.008 149.155,239.400 150.613,239.400 170.400 C 239.400 194.806,240.830 193.400,216.000 193.400 C 191.150 193.400,192.211 194.513,192.508 168.750 C 192.771 145.940,191.820 146.834,215.827 146.813 C 228.680 146.802,231.394 146.900,233.227 147.443 M161.002 217.017 C 172.886 220.113,180.635 232.152,178.207 243.747 C 173.132 267.981,139.863 269.236,132.994 245.452 C 128.267 229.090,144.415 212.697,161.002 217.017 M168.843 288.457 C 176.136 291.859,174.997 300.917,167.016 302.983 C 164.197 303.712,148.297 303.863,144.767 303.194 C 134.522 301.251,134.523 289.428,144.768 287.585 C 149.528 286.728,166.451 287.342,168.843 288.457 M211.066 287.734 C 219.419 289.484,221.092 298.641,213.720 302.261 L 211.400 303.400 200.000 303.400 L 188.600 303.400 186.351 302.296 C 178.523 298.451,180.836 289.059,190.000 287.481 C 192.507 287.049,208.730 287.244,211.066 287.734 M256.511 287.961 C 262.067 289.737,264.119 296.456,260.303 300.383 C 257.506 303.261,256.756 303.400,244.000 303.400 L 232.600 303.400 230.280 302.261 C 223.015 298.694,224.565 289.558,232.743 287.735 C 235.688 287.079,254.305 287.255,256.511 287.961 " stroke="none" fill="#64dbfb" fill-rule="evenodd"></path><path id="path2" d="M81.233 2.446 C 80.335 3.791,79.608 5.096,79.617 5.346 C 79.626 5.596,79.978 5.170,80.400 4.400 C 80.822 3.630,81.174 3.147,81.183 3.326 C 81.212 3.878,80.333 5.361,79.509 6.150 C 79.016 6.623,78.792 7.247,78.905 7.838 C 79.004 8.354,78.942 8.688,78.768 8.580 C 78.213 8.237,77.890 11.908,78.356 13.247 C 78.893 14.786,78.894 14.800,78.429 14.800 C 78.225 14.800,77.976 14.485,77.876 14.100 C 77.775 13.715,77.672 93.714,77.646 191.876 C 77.616 310.479,77.734 370.436,78.000 370.600 C 78.220 370.736,78.400 370.637,78.400 370.381 C 78.400 370.124,78.658 370.014,78.974 370.135 C 79.290 370.256,79.613 370.161,79.692 369.924 C 79.778 369.665,80.108 369.765,80.518 370.175 C 81.008 370.665,81.202 370.708,81.206 370.329 C 81.211 369.938,81.314 369.957,81.600 370.400 C 81.847 370.782,81.990 370.823,81.994 370.511 C 81.999 370.128,93.171 370.018,133.425 370.006 C 193.819 369.987,188.188 370.570,189.197 364.231 C 191.523 349.615,208.464 349.434,210.815 364.000 C 211.857 370.459,209.603 370.071,245.200 369.922 L 274.600 369.800 277.044 368.670 C 284.370 365.285,286.000 360.827,286.000 344.178 L 286.000 334.308 287.064 332.354 C 287.649 331.279,288.279 330.400,288.464 330.400 C 288.649 330.400,288.800 330.192,288.800 329.938 C 288.800 329.657,288.522 329.728,288.089 330.119 C 287.698 330.473,286.303 331.266,284.989 331.881 L 282.600 333.000 199.800 333.114 C 141.382 333.194,116.246 333.100,114.441 332.792 C 108.993 331.864,105.974 328.996,104.849 323.680 C 104.305 321.111,104.234 54.336,104.776 49.658 C 105.414 44.150,108.202 40.545,112.937 39.105 C 114.254 38.705,132.110 38.600,198.848 38.600 L 283.096 38.600 285.984 40.108 C 288.847 41.604,288.864 41.608,287.999 40.508 C 286.046 38.026,286.036 37.918,285.979 18.391 L 285.924 0.000 184.926 0.000 L 83.928 0.000 83.142 0.900 L 82.355 1.800 82.791 0.900 C 83.578 -0.722,82.897 -0.046,81.233 2.446 M317.339 0.702 C 317.757 1.181,317.947 1.762,317.777 2.037 C 317.592 2.337,317.643 2.420,317.911 2.255 C 318.161 2.100,318.782 2.713,319.369 3.693 C 319.932 4.632,320.394 5.098,320.396 4.729 C 320.398 4.359,320.117 3.774,319.771 3.429 C 319.426 3.083,319.291 2.795,319.471 2.788 C 319.652 2.781,319.481 2.590,319.092 2.363 C 318.702 2.136,318.458 1.827,318.550 1.675 C 318.642 1.524,318.241 1.052,317.659 0.627 L 316.600 -0.145 317.339 0.702 M320.624 6.400 C 320.801 6.950,321.156 8.202,321.413 9.181 C 321.669 10.161,321.964 10.707,322.068 10.395 C 322.172 10.083,321.914 8.921,321.494 7.814 C 320.690 5.695,320.072 4.691,320.624 6.400 M322.028 12.667 C 322.013 13.364,321.879 14.249,321.732 14.633 C 321.563 15.072,321.620 15.235,321.884 15.072 C 322.462 14.714,322.725 13.108,322.359 12.173 C 322.120 11.562,322.050 11.666,322.028 12.667 M77.522 385.949 C 77.429 386.581,77.486 387.436,77.649 387.849 C 77.843 388.344,77.953 387.951,77.972 386.700 C 78.003 384.576,77.779 384.200,77.522 385.949 M321.882 386.421 C 322.008 387.399,322.175 388.275,322.255 388.367 C 322.581 388.742,322.360 385.755,322.021 385.221 C 321.784 384.846,321.735 385.270,321.882 386.421 M321.606 389.882 C 321.595 391.460,319.759 395.883,318.234 398.006 C 317.021 399.694,316.928 399.942,317.731 399.340 C 318.274 398.933,318.635 398.464,318.533 398.297 C 318.432 398.131,318.630 397.887,318.972 397.755 C 319.315 397.624,319.508 397.375,319.402 397.203 C 319.296 397.031,319.465 396.678,319.779 396.418 C 320.092 396.158,320.464 395.417,320.606 394.772 C 320.748 394.128,321.040 393.600,321.255 393.600 C 321.471 393.600,321.548 393.439,321.426 393.242 C 321.305 393.046,321.462 392.271,321.775 391.521 C 322.142 390.644,322.214 389.951,321.979 389.579 C 321.692 389.126,321.611 389.192,321.606 389.882 M78.419 391.492 C 78.395 392.107,79.650 395.284,79.840 395.093 C 79.918 395.016,79.633 394.063,79.209 392.976 C 78.785 391.889,78.429 391.221,78.419 391.492 M79.902 395.866 C 80.179 395.977,80.303 396.233,80.179 396.434 C 80.055 396.635,80.154 396.800,80.400 396.800 C 80.646 396.800,80.748 396.961,80.626 397.158 C 80.504 397.355,80.685 397.624,81.028 397.755 C 81.370 397.887,81.568 398.131,81.467 398.297 C 81.365 398.464,81.759 398.948,82.341 399.373 L 83.400 400.145 82.661 399.298 C 82.243 398.819,82.053 398.238,82.223 397.963 C 82.411 397.659,82.357 397.580,82.079 397.751 C 81.821 397.911,81.371 397.517,81.007 396.813 C 80.662 396.146,80.159 395.614,79.890 395.632 C 79.517 395.656,79.520 395.712,79.902 395.866 " stroke="none" fill="#6b5c64" fill-rule="evenodd"></path><path id="path3" d="M276.369 44.196 C 275.362 44.519,274.239 45.115,273.873 45.519 C 273.255 46.202,273.200 55.616,273.104 175.827 C 273.005 299.299,272.966 305.475,272.285 306.985 C 271.306 309.155,270.506 309.973,268.400 310.958 L 266.600 311.800 189.431 311.901 C 103.501 312.013,111.347 311.730,110.351 314.748 C 108.665 319.853,110.440 325.628,114.200 327.275 C 115.725 327.943,278.535 328.281,282.787 327.625 C 285.880 327.148,287.098 326.344,288.302 323.987 L 289.205 322.221 289.102 185.211 C 289.001 49.005,288.995 48.192,288.200 46.862 C 286.548 44.098,280.746 42.791,276.369 44.196 " stroke="none" fill="#04bcf4" fill-rule="evenodd"></path><path id="path4" d="M80.681 0.711 C 79.685 1.811,78.109 5.508,77.317 8.600 C 76.633 11.273,76.600 19.995,76.600 200.200 L 76.600 389.000 77.496 392.362 C 78.610 396.537,80.347 399.749,81.591 399.934 L 82.492 400.068 81.459 398.713 C 80.150 396.996,78.394 393.052,78.421 391.889 C 78.433 391.338,78.775 391.836,79.321 393.200 C 80.589 396.373,81.578 398.061,82.012 397.792 C 82.221 397.664,82.297 397.804,82.181 398.104 C 81.406 400.126,73.753 400.010,200.217 399.901 L 316.970 399.800 318.466 397.659 C 320.484 394.771,321.763 390.870,321.784 387.540 C 321.793 386.077,321.932 385.087,322.094 385.340 C 322.256 385.593,322.391 302.314,322.394 200.276 C 322.397 94.344,322.250 14.846,322.050 14.969 C 321.857 15.088,321.787 14.414,321.893 13.471 C 322.246 10.339,319.369 2.014,318.036 2.310 C 317.764 2.370,317.662 2.224,317.809 1.985 C 317.957 1.745,317.763 1.201,317.377 0.775 C 316.340 -0.372,286.013 -0.444,285.980 0.700 C 285.969 1.085,285.977 9.363,285.999 19.096 C 286.042 39.058,285.845 37.699,289.361 42.322 C 290.657 44.028,291.836 46.098,292.191 47.295 C 293.108 50.382,293.119 321.181,292.203 324.266 C 291.683 326.016,289.777 329.026,288.102 330.742 C 286.183 332.708,286.000 333.881,286.000 344.207 C 286.000 360.824,284.366 365.286,277.044 368.670 L 274.600 369.800 245.200 369.922 C 209.603 370.071,211.857 370.459,210.815 364.000 C 208.464 349.434,191.523 349.615,189.197 364.231 C 188.188 370.570,193.819 369.987,133.425 370.006 C 93.171 370.018,81.999 370.128,81.994 370.511 C 81.990 370.823,81.847 370.782,81.600 370.400 C 81.314 369.957,81.211 369.938,81.206 370.329 C 81.202 370.708,81.008 370.665,80.518 370.175 C 80.108 369.765,79.778 369.665,79.692 369.924 C 79.613 370.161,79.290 370.256,78.974 370.135 C 78.658 370.014,78.400 370.124,78.400 370.381 C 78.400 370.637,78.195 370.720,77.944 370.565 C 77.478 370.278,77.710 386.480,78.216 389.600 C 78.420 390.858,78.390 390.919,77.921 390.200 C 76.919 388.662,76.973 12.830,77.977 8.798 C 78.716 5.827,79.995 2.919,81.449 0.900 C 82.216 -0.165,81.609 -0.315,80.681 0.711 M318.725 1.560 C 319.885 3.161,320.988 5.692,322.053 9.200 C 322.867 11.880,322.871 388.000,322.057 391.000 C 321.338 393.651,319.767 397.084,318.517 398.734 L 317.508 400.068 318.454 399.934 C 319.185 399.830,319.735 399.118,320.874 396.800 C 323.870 390.700,323.643 407.743,323.515 198.200 L 323.400 10.600 322.498 7.428 C 321.351 3.393,319.610 0.245,318.430 0.069 C 317.586 -0.057,317.598 0.004,318.725 1.560 " stroke="none" fill="#443c44" fill-rule="evenodd"></path><path id="path5" d="M81.466 1.300 C 80.104 3.116,78.992 5.429,78.140 8.217 C 77.439 10.508,77.411 17.891,77.403 198.600 L 77.396 386.600 77.599 200.000 C 77.710 97.370,77.846 13.715,77.901 14.100 C 77.955 14.485,78.180 14.800,78.400 14.800 C 78.897 14.800,78.897 14.796,78.356 13.247 C 77.880 11.881,78.218 8.240,78.788 8.593 C 78.974 8.707,79.042 8.481,78.939 8.089 C 78.593 6.765,81.606 0.909,82.385 1.391 C 82.564 1.501,82.955 1.278,83.255 0.896 C 83.759 0.253,83.741 0.246,83.025 0.800 C 82.321 1.345,82.274 1.336,82.513 0.700 C 82.907 -0.352,82.552 -0.148,81.466 1.300 M322.598 200.200 C 322.598 303.160,322.644 345.340,322.700 293.933 C 322.756 242.526,322.756 158.286,322.700 106.733 C 322.644 55.180,322.598 97.240,322.598 200.200 M114.459 40.428 C 112.020 40.910,109.352 42.579,108.233 44.322 C 106.066 47.695,106.200 38.420,106.200 185.400 C 106.200 339.604,105.873 324.779,109.347 328.253 C 112.552 331.458,105.092 331.220,199.015 331.104 L 282.600 331.000 284.691 330.055 C 285.841 329.535,287.497 328.334,288.371 327.385 C 291.472 324.021,291.218 337.302,291.103 184.788 L 291.000 48.200 289.758 46.011 C 288.443 43.691,285.912 41.625,283.273 40.715 C 281.529 40.113,117.455 39.834,114.459 40.428 M274.794 42.404 C 283.887 42.864,285.930 43.503,287.920 46.510 L 289.000 48.142 289.117 184.771 C 289.200 280.918,289.108 321.839,288.807 322.882 C 288.247 324.820,286.699 326.622,284.650 327.718 L 283.000 328.600 200.000 328.722 C 108.990 328.856,113.780 328.980,111.216 326.416 C 109.157 324.357,108.923 323.014,108.388 310.200 C 107.706 293.894,108.015 49.963,108.720 47.912 C 109.790 44.796,112.187 42.924,115.785 42.396 C 118.885 41.940,265.762 41.948,274.794 42.404 " stroke="none" fill="#5c7c8c" fill-rule="evenodd"></path><path id="path6" d="M115.785 42.396 C 112.187 42.924,109.790 44.796,108.720 47.912 C 108.015 49.963,107.706 293.894,108.388 310.200 C 109.023 325.406,109.688 327.273,114.863 328.385 C 118.795 329.230,282.680 328.781,284.200 327.921 L 285.400 327.242 283.800 327.521 C 281.559 327.912,116.939 327.872,115.091 327.480 C 110.089 326.420,107.647 316.177,111.554 312.642 C 112.173 312.081,112.228 311.676,111.935 309.810 C 111.172 304.941,111.729 49.473,112.506 48.288 C 114.285 45.573,106.739 45.810,194.530 45.710 C 251.754 45.645,273.843 45.497,274.229 45.176 C 275.971 43.730,281.696 43.170,284.500 44.170 C 286.558 44.905,286.390 44.527,284.233 43.574 C 282.817 42.947,280.933 42.715,274.733 42.401 C 265.758 41.948,118.867 41.943,115.785 42.396 " stroke="none" fill="#64accc" fill-rule="evenodd"></path><path id="path7" d="M140.577 76.007 C 131.676 76.947,130.585 79.994,130.912 103.000 C 131.223 124.855,131.143 124.784,155.400 124.784 C 180.301 124.784,179.800 125.289,179.800 100.200 C 179.800 75.074,180.291 75.556,154.800 75.661 C 148.530 75.687,142.130 75.843,140.577 76.007 M170.969 79.583 C 176.073 80.767,176.200 81.269,176.200 100.200 C 176.200 122.760,177.765 121.175,155.477 121.190 C 133.256 121.206,134.399 122.348,134.402 100.123 C 134.406 78.030,133.175 79.266,155.200 79.237 C 163.010 79.227,170.106 79.383,170.969 79.583 M210.000 80.610 C 193.103 85.248,186.431 106.010,197.654 119.025 C 212.349 136.067,239.800 126.150,239.800 103.800 C 239.800 88.270,224.752 76.560,210.000 80.610 M220.983 84.212 C 236.193 88.174,241.337 107.188,230.171 118.176 C 217.444 130.702,195.907 121.665,195.907 103.800 C 195.907 90.590,208.301 80.909,220.983 84.212 M137.483 146.645 C 131.860 148.373,131.131 150.695,130.899 167.605 C 130.523 195.099,130.077 194.600,155.000 194.600 C 180.227 194.600,179.582 195.160,179.893 172.992 C 180.193 151.530,179.399 148.506,172.954 146.566 C 170.169 145.728,140.250 145.794,137.483 146.645 M198.400 147.582 C 193.120 149.397,192.714 150.856,192.508 168.750 C 192.323 184.736,192.565 187.403,194.429 189.976 C 196.935 193.436,196.706 193.400,216.000 193.400 C 240.830 193.400,239.400 194.806,239.400 170.400 C 239.400 145.720,240.471 146.792,215.827 146.813 C 201.957 146.825,200.404 146.894,198.400 147.582 M172.995 150.237 C 174.114 150.823,174.890 151.657,175.595 153.026 L 176.600 154.979 176.600 170.189 L 176.600 185.400 175.600 187.400 C 174.862 188.877,174.129 189.662,172.800 190.400 L 171.000 191.400 157.159 191.531 C 145.005 191.646,141.804 191.510,138.416 190.730 C 134.796 189.898,134.400 187.899,134.400 170.452 C 134.400 147.630,132.855 149.157,155.800 149.302 C 170.751 149.396,171.466 149.435,172.995 150.237 M229.800 170.200 L 229.800 183.800 216.000 183.800 L 202.200 183.800 202.094 170.603 C 202.036 163.345,202.077 157.177,202.184 156.898 C 202.337 156.498,205.293 156.412,216.089 156.495 L 229.800 156.600 229.800 170.200 M149.400 217.148 C 130.182 222.680,126.118 247.725,142.645 258.779 C 156.494 268.041,174.734 260.332,178.207 243.747 C 181.605 227.521,165.387 212.546,149.400 217.148 M161.699 224.770 C 168.106 227.241,172.423 234.948,171.276 241.868 C 168.717 257.312,148.216 260.698,141.217 246.833 C 134.498 233.524,147.653 219.353,161.699 224.770 M144.768 287.585 C 134.523 289.428,134.522 301.251,144.767 303.194 C 148.297 303.863,164.197 303.712,167.016 302.983 C 174.997 300.917,176.136 291.859,168.843 288.457 C 166.451 287.342,149.528 286.728,144.768 287.585 M190.000 287.481 C 180.836 289.059,178.523 298.451,186.351 302.296 L 188.600 303.400 200.000 303.400 L 211.400 303.400 213.720 302.261 C 221.092 298.641,219.419 289.484,211.066 287.734 C 208.730 287.244,192.507 287.049,190.000 287.481 M232.743 287.735 C 224.565 289.558,223.015 298.694,230.280 302.261 L 232.600 303.400 244.000 303.400 C 256.756 303.400,257.506 303.261,260.303 300.383 C 264.119 296.456,262.067 289.737,256.511 287.961 C 254.305 287.255,235.688 287.079,232.743 287.735 " stroke="none" fill="#9bd8e5" fill-rule="evenodd"></path><path id="path8" d="M114.446 38.850 C 110.047 39.583,107.189 41.885,105.471 46.076 L 104.600 48.200 104.481 184.600 C 104.393 285.750,104.481 321.619,104.820 323.395 C 105.875 328.916,108.872 331.843,114.441 332.792 C 116.246 333.100,141.382 333.194,199.800 333.114 L 282.600 333.000 285.235 331.751 C 288.338 330.281,290.572 328.184,291.751 325.636 L 292.600 323.800 292.600 185.800 L 292.600 47.800 291.758 45.980 C 290.492 43.244,288.736 41.490,285.741 39.970 L 283.042 38.600 199.821 38.545 C 152.226 38.514,115.678 38.644,114.446 38.850 M283.273 40.715 C 285.912 41.625,288.443 43.691,289.758 46.011 L 291.000 48.200 291.103 184.788 C 291.218 337.302,291.472 324.021,288.371 327.385 C 287.497 328.334,285.841 329.535,284.691 330.055 L 282.600 331.000 199.015 331.104 C 105.092 331.220,112.552 331.458,109.347 328.253 C 105.873 324.779,106.200 339.604,106.200 185.400 C 106.200 38.420,106.066 47.695,108.233 44.322 C 109.352 42.579,112.020 40.910,114.459 40.428 C 117.455 39.834,281.529 40.113,283.273 40.715 " stroke="none" fill="#5c7484" fill-rule="evenodd"></path></g></svg>